<?xml version="1.0" standalone="no"?>
<!DOCTYPE svg PUBLIC "-//W3C//DTD SVG 20010904//EN"
 "http://www.w3.org/TR/2001/REC-SVG-20010904/DTD/svg10.dtd">
<svg version="1.0" xmlns="http://www.w3.org/2000/svg"
 width="7430.000000pt" height="7875.000000pt" viewBox="0 0 7430.000000 7875.000000"
 preserveAspectRatio="xMidYMid meet">

<g transform="translate(0.000000,7875.000000) scale(0.100000,-0.100000)"
fill="#000000" stroke="none">
<path d="M42995 77264 l-2099 -1485 -226 -113 c-242 -121 -451 -240 -650 -371
-159 -103 -37330 -26373 -37505 -26505 -985 -742 -1729 -1753 -2145 -2910
l-50 -140 0 -2008 0 -2009 40 -112 c213 -597 525 -1176 904 -1679 107 -141
110 -145 258 -372 52 -80 1929 -2740 4170 -5912 2242 -3171 4075 -5772 4075
-5780 -2 -16 7294 -10348 7305 -10345 4 1 1061 747 2349 1657 1288 910 2396
1688 2463 1728 262 159 538 354 762 539 55 46 6774 4799 14930 10564 8156
5764 14830 10483 14832 10487 1 5 -369 360 -824 791 -454 431 -824 784 -822
785 4 3 11133 -271 11178 -276 l35 -3 -1785 -5307 c-982 -2919 -1788 -5309
-1791 -5312 -3 -4 -217 481 -476 1076 -258 595 -474 1083 -479 1085 -9 3
-30184 -21319 -30434 -21506 -1349 -1007 -2238 -2519 -2470 -4198 -71 -514
-77 -1058 -19 -1578 131 -1183 593 -2298 1341 -3240 57 -71 742 -1033 1522
-2138 l1419 -2007 719 0 720 0 1751 1238 c1372 969 1784 1255 1899 1319 184
102 354 208 533 332 441 306 37246 26323 37370 26416 1386 1042 2281 2631
2469 4380 73 676 32 1381 -119 2065 -19 85 -48 225 -65 310 -159 800 -481
1578 -933 2254 -43 66 -1987 2820 -4320 6120 -2332 3301 -5882 8325 -7890
11166 -2007 2841 -3652 5168 -3656 5173 -10 10 -35806 -25289 -35806 -25306 0
-7 386 -378 858 -826 472 -447 856 -815 854 -817 -4 -4 -11199 268 -11206 272
-1 2 802 2395 1785 5318 984 2923 1790 5313 1793 5311 2 -3 219 -500 482
-1106 263 -606 480 -1104 482 -1106 6 -5 30601 21618 30792 21762 430 323 858
748 1189 1179 1178 1532 1594 3540 1121 5416 -171 679 -471 1359 -859 1944
-63 96 -65 99 -46 115 19 15 -41 102 -1793 2580 -996 1410 -1817 2566 -1822
2567 -6 1 -955 -666 -2110 -1482z"/>
</g>
</svg>
