<?xml version="1.0" encoding="UTF-8"?>
<svg width="1024px" height="1024px" viewBox="0 0 1024 1024" version="1.1" xmlns="http://www.w3.org/2000/svg" xmlns:xlink="http://www.w3.org/1999/xlink">
    <!-- Generator: Sketch 58 (84663) - https://sketch.com -->
    <title>1safari-pinned-tab</title>
    <desc>Created with Sketch.</desc>
    <g id="AppIcon" stroke="none" stroke-width="1" fill="none" fill-rule="evenodd">
        <g>
            <rect id="Rectangle" stroke="#979797" fill="#1E1E1E" x="0.5" y="0.5" width="1023" height="1023"></rect>
            <g id="logoBlack" fill="#FFFFFF" fill-rule="nonzero">
                <g id="Group" transform="translate(512.364452, 512.000000) scale(-1, 1) rotate(-180.000000) translate(-512.364452, -512.000000) translate(1.038136, 0.000000)">
                    <path d="M589.912153,1004.55007 L560.896907,985.073914 L557.772826,983.59189 C554.427572,982.004944 551.538488,980.444228 548.787638,978.726129 C546.589723,977.375258 32.7613779,632.83743 30.3422888,631.106216 C16.7262731,621.374694 6.44168865,608.115168 0.69116831,592.940815 L0,591.104679 L0,564.769241 L0,538.420687 L0.552934648,536.951778 C3.49731165,529.121969 7.8102019,521.528235 13.0492577,514.93126 C14.5283579,513.082009 14.569828,513.029548 16.6156862,510.052384 C17.3345012,509.003164 43.2809596,474.116577 74.2591232,432.514979 C105.25111,390.926496 130.589341,356.81371 130.589341,356.708787 C130.561694,356.498943 231.416974,220.992098 231.569031,221.031443 C231.624324,221.044559 246.235622,230.828541 264.040118,242.763426 C281.844613,254.698311 297.160903,264.901981 298.087069,265.426592 C301.708791,267.511918 305.52404,270.069393 308.620474,272.495716 C309.380759,273.099018 402.259956,335.435839 515.003331,411.045301 C627.746706,486.641649 720.003852,548.532551 720.031499,548.585012 C720.045322,548.650589 714.930677,553.306505 708.641045,558.959181 C702.365237,564.611858 697.250591,569.241544 697.278238,569.254659 C697.333531,569.294005 851.173774,565.700424 851.795825,565.634848 L852.279643,565.595502 L827.604934,495.992828 C814.030389,457.709389 802.888756,426.363923 802.847286,426.324577 C802.805816,426.272116 799.847615,432.633016 796.267363,440.436595 C792.700935,448.240173 789.715088,454.640419 789.645971,454.66665 C789.521561,454.705995 372.401485,175.062464 368.945644,172.609911 C350.297923,159.402846 338.00895,139.572576 334.801929,117.552058 C333.82047,110.810815 333.73753,103.676115 334.539285,96.8561804 C336.350146,81.3408302 342.736542,66.7173175 353.07642,54.3627445 C353.864351,53.4315612 363.333357,40.8146829 374.115583,26.3223228 L393.73094,0 L403.66994,0 L413.622763,0 L437.827478,16.2366894 C456.793136,28.9453744 462.488363,32.6963382 464.07805,33.5357147 C466.621549,34.8734711 468.971522,36.2636884 471.445904,37.8899804 C477.542009,41.9032494 986.311002,383.122917 988.025099,384.342636 C1007.18428,398.008735 1019.5562,418.84888 1022.15499,441.787466 C1023.1641,450.653381 1022.59734,459.899638 1020.51001,468.870474 C1020.24737,469.985271 1019.84649,471.821407 1019.61149,472.936204 C1017.41358,483.42841 1012.96245,493.632081 1006.71429,502.497996 C1006.11989,503.363603 979.247262,539.483023 946.997348,582.763375 C914.761258,626.056841 865.688308,691.947898 837.930989,729.208346 C810.187493,766.468794 787.448056,796.987999 787.392762,797.053575 C787.254529,797.184728 292.433312,465.381815 292.433312,465.158856 C292.433312,465.067049 297.769131,460.201288 304.29376,454.325653 C310.818389,448.463133 316.126562,443.636718 316.098915,443.610487 C316.043621,443.558026 161.291037,447.125376 161.194273,447.177837 C161.18045,447.204068 172.280613,478.58888 185.868982,516.924779 C199.471174,555.260679 210.612807,586.606145 210.654278,586.579915 C210.681924,586.540569 213.681595,580.022286 217.31714,572.074439 C220.952685,564.126593 223.952356,557.595194 223.980003,557.568964 C224.062943,557.503388 646.988832,841.094612 649.629095,842.983209 C655.573142,847.219437 661.489543,852.793422 666.065077,858.446098 C682.349002,878.538673 688.099523,904.874111 681.561071,929.478335 C679.197275,938.383596 675.050265,947.301971 669.686799,954.974397 C668.815927,956.233462 668.78828,956.272808 669.050924,956.482652 C669.313568,956.679381 668.484166,957.820408 644.265629,990.320017 C630.497556,1008.81253 619.148572,1023.97377 619.079455,1023.9869 C618.996515,1024 605.878141,1015.25212 589.912153,1004.55007 Z" id="Path"></path>
                </g>
            </g>
        </g>
    </g>
</svg>